<svg width="16" height="16" viewBox="0 0 16 16" fill="none" xmlns="http://www.w3.org/2000/svg">
    <defs>
        <clipPath id="mask">
            <polygon points="0 0 0 16 7 16 8.4 10.2 16 10.2 16 0" fill="white"/>
        </clipPath>
    </defs>

    <g clip-path="url(#mask)">
        <path d="M3 5 h4 v-2 h3 v4 h4 v6 h-11 z" stroke-width="2" stroke-linejoin="round" stroke="#CED0D6" fill="#CED0D6"/>
        <g fill="#43454A">
            <rect x="3" y="5" width="3" height="8"/>
            <rect x="7" y="3" width="3" height="10"/>
            <rect x="11" y="7" width="3" height="6"/>
        </g>
    </g>

    <path d="M14.8 11C15.93 11 16.13 11.96 15.93 12.82L15.3 15.643C15.25 15.88 15 16.04 14.75 15.99C14.5 15.94 14.34 15.7 14.39 15.46L14.98 12.82C15.3 11.45 13.52 11.62 12.79 12.64L12.11 15.65C12.06 15.89 11.81 16.04 11.56 15.99C11.55 15.99 11.54 15.98 11.53 15.98C11.29 15.92 11.14 15.69 11.19 15.46L11.79 12.82C11.93 12.2 11.64 11.9 11.2 11.84C10.7 11.79 10 12.1 9.6 12.64L8.92 15.65C8.86 15.89 8.62 16.04 8.37 16C8.12 15.94 7.96 15.7 8 15.47L8.92 11.45C8.97 11.2 9.22 11.05 9.47 11.15C9.75 11.16 9.87 11.42 9.82 11.67C10.34 11.26 10.95 10.97 11.65 11C12.33 11 12.66 11.38 12.77 11.86C13.4 11.33 13.93 11 14.8 11Z" fill="#548AF7"/>
</svg>
