<?xml version="1.0" encoding="utf-8"?>
<!-- Generator: Adobe Illustrator 25.0.1, SVG Export Plug-In . SVG Version: 6.00 Build 0)  -->
<svg version="1.0" id="Layer_1" xmlns="http://www.w3.org/2000/svg" xmlns:xlink="http://www.w3.org/1999/xlink" x="0px" y="0px"
	 width="100px" height="100px" viewBox="0 0 100 100" enable-background="new 0 0 100 100" xml:space="preserve">
<path fill-rule="evenodd" clip-rule="evenodd" fill="#5A8AA5" d="M20,23.4L9.3,76.7H24L30.6,41c0,0,5.8-5,10.2-4.6
	c4.4,0.5,4.4,5.1,4.4,5.1l-6.2,35.2h14.7L60.8,41c0,0,4.9-5,9.8-4.6c4.9,0.5,4,5.5,4,5.5l-6.7,34.7H83L90.5,36
	c0.9-6.4-2.9-12-8-12.6c-5.1-0.6-10.2,0.7-14.6,3.5s-7.1,6.4-7.1,6.4s-2.3-9.3-9.3-9.9s-10.2,1.1-13.3,3c-3.1,1.8-4.9,4.2-4.9,4.2
	l1.2-7.1H20z"/>
</svg>
